<!-- Generated by readme-aura https://github.com/collectioneur/readme-aura -->
<svg width="800" height="260" viewBox="0 0 800 260" xmlns="http://www.w3.org/2000/svg"><defs><clipPath id="satori_bc-id"><path x="0" y="0" width="800" height="260" d="M24,0 h752 a24,24 0 0 1 24,24 v212 a24,24 0 0 1 -24,24 h-752 a24,24 0 0 1 -24,-24 v-212 a24,24 0 0 1 24,-24"/></clipPath></defs><clipPath id="satori_cp-id"><path x="0" y="0" width="800" height="260" d="M24,0 h752 a24,24 0 0 1 24,24 v212 a24,24 0 0 1 -24,24 h-752 a24,24 0 0 1 -24,-24 v-212 a24,24 0 0 1 24,-24"/></clipPath><mask id="satori_om-id"><rect x="1" y="1" width="798" height="258" fill="#fff"/><path width="800" height="260" fill="none" stroke="#000" stroke-width="2" d="M7.029,7.029 A24,24 0 0 1 24,0 h752 a24,24 0 0 1 24,24 v212 a24,24 0 0 1 -24,24 h-752 a24,24 0 0 1 -24,-24 v-212 A24,24 0 0 1 7.029,7.029"/></mask><path x="0" y="0" width="800" height="260" fill="#09090b" d="M24,0 h752 a24,24 0 0 1 24,24 v212 a24,24 0 0 1 -24,24 h-752 a24,24 0 0 1 -24,-24 v-212 a24,24 0 0 1 24,-24"/><path width="800" height="260" clip-path="url(#satori_bc-id)" fill="none" stroke="#27272a" stroke-width="2" d="M7.029,7.029 A24,24 0 0 1 24,0 h752 a24,24 0 0 1 24,24 v212 a24,24 0 0 1 -24,24 h-752 a24,24 0 0 1 -24,-24 v-212 A24,24 0 0 1 7.029,7.029"/><defs><pattern id="satori_pattern_id-0_0" x="0" y="0" width="1" height="1" patternUnits="objectBoundingBox"><radialGradient id="satori_radial_id-0_0" spreadMethod="pad"><stop offset="0" stop-color="rgba(139, 92, 246, 0.25)"/><stop offset="0.7" stop-color="rgba(0,0,0,0)"/><stop offset="1" stop-color="rgba(0,0,0,0)"/></radialGradient><mask id="satori_mask_id-0_0"><rect x="0" y="0" width="600" height="300" fill="#fff"/></mask><rect x="0" y="0" width="600" height="300" fill="rgba(0,0,0,0)"/><circle cx="300" cy="150" width="600" height="300" r="335.4101966249685" fill="url(#satori_radial_id-0_0)" mask="url(#satori_mask_id-0_0)"/></pattern></defs><mask id="satori_om-id-0"><rect x="100" y="-99" width="600" height="300" fill="#fff" mask="url(#satori_om-id)"/></mask><rect x="100" y="-99" width="600" height="300" fill="url(#satori_pattern_id-0_0)" clip-path="url(#satori_cp-id)" style="filter:blur(60px)" mask="url(#satori_om-id)"/><defs><pattern id="satori_pattern_id-1_0" x="0" y="0" width="1" height="1" patternUnits="objectBoundingBox"><radialGradient id="satori_radial_id-1_0" spreadMethod="pad"><stop offset="0" stop-color="rgba(225, 29, 72, 0.25)"/><stop offset="0.7" stop-color="rgba(0,0,0,0)"/><stop offset="1" stop-color="rgba(0,0,0,0)"/></radialGradient><mask id="satori_mask_id-1_0"><rect x="0" y="0" width="400" height="200" fill="#fff"/></mask><rect x="0" y="0" width="400" height="200" fill="rgba(0,0,0,0)"/><circle cx="200" cy="100" width="400" height="200" r="223.60679774997897" fill="url(#satori_radial_id-1_0)" mask="url(#satori_mask_id-1_0)"/></pattern></defs><mask id="satori_om-id-1"><rect x="499" y="159" width="400" height="200" fill="#fff" mask="url(#satori_om-id)"/></mask><rect x="499" y="159" width="400" height="200" fill="url(#satori_pattern_id-1_0)" clip-path="url(#satori_cp-id)" style="filter:blur(60px)" mask="url(#satori_om-id)"/><mask id="satori_om-id-2"><rect x="140" y="49" width="521" height="68" fill="#fff" mask="url(#satori_om-id)"/></mask><g mask="url(#satori_om-id)" clip-path="url(#satori_cp-id)"><path fill="white" d="M150.6 103L141.3 103L155.3 62.3L166.2 62.3L180.5 103L171.2 103L168.1 93.5L153.6 93.5L150.6 103ZM155.7 87.0L165.9 87.0L164.7 83.3Q163.5 79.5 162.3 75L162.3 75Q161.5 72.1 160.6 68.8L160.6 68.8Q159.8 72.1 159.1 75.1L159.1 75.1Q158.0 79.6 156.8 83.3L156.8 83.3L155.7 87.0ZM194.5 103.5L194.5 103.5Q191.0 103.5 188.1 101.7Q185.3 99.9 183.7 96.4Q182.0 92.9 182.0 87.8L182.0 87.8Q182.0 82.5 183.7 79.0Q185.4 75.5 188.2 73.8Q191.0 72.0 194.4 72.0L194.4 72.0Q197.0 72.0 198.8 72.9Q200.5 73.8 201.5 75.1Q202.6 76.4 203.1 77.6L203.1 77.6L203.4 77.6L203.4 62.3L211.6 62.3L211.6 103L203.5 103L203.5 98.1L203.1 98.1Q202.6 99.3 201.5 100.6Q200.4 101.8 198.7 102.7Q197.0 103.5 194.5 103.5ZM197.0 96.9L197.0 96.9Q199.1 96.9 200.6 95.8Q202.0 94.6 202.8 92.6Q203.6 90.5 203.6 87.7L203.6 87.7Q203.6 85.0 202.8 82.9Q202.1 80.9 200.6 79.7Q199.1 78.6 197.0 78.6L197.0 78.6Q194.8 78.6 193.4 79.8Q191.9 81.0 191.2 83.0Q190.4 85.1 190.4 87.7L190.4 87.7Q190.4 90.4 191.2 92.5Q191.9 94.6 193.4 95.8Q194.9 96.9 197.0 96.9ZM224.8 103L216.6 103L216.6 72.4L224.8 72.4L224.8 103ZM220.7 68.4L220.7 68.4Q218.9 68.4 217.5 67.2Q216.2 66.0 216.2 64.2L216.2 64.2Q216.2 62.5 217.5 61.2Q218.9 60.0 220.7 60.0L220.7 60.0Q222.6 60.0 223.9 61.2Q225.2 62.4 225.2 64.2L225.2 64.2Q225.2 66.0 223.9 67.2Q222.6 68.4 220.7 68.4ZM239.2 72.4L245.0 72.4L245.0 78.7L239.2 78.7L239.2 94.1Q239.2 95.5 239.9 96.2Q240.5 96.9 242.0 96.9L242.0 96.9Q242.5 96.9 243.3 96.8Q244.2 96.7 244.6 96.5L244.6 96.5L245.8 102.7Q244.4 103.1 243.1 103.3Q241.7 103.4 240.5 103.4L240.5 103.4Q235.9 103.4 233.5 101.2Q231.0 99.0 231.0 94.8L231.0 94.8L231.0 78.7L226.8 78.7L226.8 72.4L231.0 72.4L231.0 65.2L239.2 65.2L239.2 72.4ZM248.1 113.8L248.1 113.8L250.0 107.6L251.0 107.9Q252.6 108.3 253.9 108.1Q255.2 107.9 256.0 107.1Q256.7 106.3 256.9 104.7L256.9 104.7L257.1 103.1L245.6 72.4L254.4 72.4L259.5 88.3Q260.4 91.3 261.0 94.3L261.0 94.3Q261.2 95.3 261.4 96.4L261.4 96.4Q261.7 95.3 261.9 94.3L261.9 94.3Q262.7 91.3 263.7 88.3L263.7 88.3L269.0 72.4L277.6 72.4L264.6 106.6Q263.7 109.1 262.3 110.9Q260.8 112.7 258.7 113.7Q256.5 114.6 253.4 114.6L253.4 114.6Q251.8 114.6 250.4 114.4Q248.9 114.2 248.1 113.8ZM288.5 103.6L288.5 103.6Q285.6 103.6 283.3 102.6Q281.0 101.6 279.7 99.5Q278.4 97.5 278.4 94.4L278.4 94.4Q278.4 91.9 279.3 90.2Q280.3 88.5 281.9 87.4Q283.5 86.4 285.6 85.8Q287.6 85.3 289.9 85.1L289.9 85.1Q292.6 84.8 294.2 84.6Q295.8 84.3 296.6 83.8Q297.3 83.3 297.3 82.3L297.3 82.3L297.3 82.2Q297.3 80.9 296.8 80.0Q296.2 79.1 295.1 78.6Q294.1 78.1 292.5 78.1L292.5 78.1Q290.9 78.1 289.8 78.6Q288.6 79.1 287.9 79.9Q287.1 80.7 286.8 81.6L286.8 81.6L279.2 80.4Q280.0 77.7 281.9 75.9Q283.7 74.0 286.4 73.0Q289.1 72.0 292.6 72.0L292.6 72.0Q295.0 72.0 297.3 72.6Q299.7 73.2 301.5 74.5Q303.4 75.7 304.4 77.7Q305.5 79.6 305.5 82.4L305.5 82.4L305.5 103L297.8 103L297.8 98.8L297.5 98.8Q296.7 100.2 295.5 101.3Q294.3 102.3 292.5 103.0Q290.8 103.6 288.5 103.6ZM290.9 97.8L290.9 97.8Q292.8 97.8 294.3 97.1Q295.7 96.3 296.6 95.0Q297.4 93.7 297.4 92.1L297.4 92.1L297.4 88.8Q297.0 89.0 296.3 89.2Q295.5 89.5 294.6 89.6Q293.7 89.8 292.9 89.9Q292.0 90.1 291.3 90.1L291.3 90.1Q289.8 90.4 288.6 90.9Q287.5 91.4 286.9 92.2Q286.2 93.0 286.2 94.2L286.2 94.2Q286.2 95.4 286.8 96.2Q287.4 97.0 288.5 97.4Q289.5 97.8 290.9 97.8Z M344.8 103L333.9 103L319.6 62.3L328.9 62.3L335.4 81.9Q336.6 85.6 337.8 90.1L337.8 90.1Q338.6 93.0 339.4 96.3L339.4 96.3Q340.2 93.0 341.0 90.1L341.0 90.1Q342.1 85.6 343.2 81.9L343.2 81.9L349.5 62.3L358.8 62.3L344.8 103ZM369.8 103L361.6 103L361.6 72.4L369.8 72.4L369.8 103ZM365.7 68.4L365.7 68.4Q363.8 68.4 362.5 67.2Q361.2 66.0 361.2 64.2L361.2 64.2Q361.2 62.5 362.5 61.2Q363.8 60.0 365.7 60.0L365.7 60.0Q367.6 60.0 368.9 61.2Q370.2 62.4 370.2 64.2L370.2 64.2Q370.2 66.0 368.9 67.2Q367.6 68.4 365.7 68.4ZM383.0 103L374.8 103L374.8 62.3L383.0 62.3L383.0 84.2L383.4 84.2L393.4 72.4L402.9 72.4L391.5 85.7L403.5 103L393.9 103L385.3 90.6L383.0 93.2L383.0 103ZM413.5 103L405.3 103L405.3 72.4L413.2 72.4L413.2 77.8L413.5 77.8Q414.4 74.9 416.3 73.5Q418.3 72.0 420.9 72.0L420.9 72.0Q421.5 72.0 422.3 72.1Q423.0 72.2 423.5 72.3L423.5 72.3L423.5 79.6Q423.0 79.4 422.0 79.3Q420.9 79.2 420.0 79.2L420.0 79.2Q418.1 79.2 416.6 80.0Q415.1 80.8 414.3 82.3Q413.5 83.7 413.5 85.6L413.5 85.6L413.5 103ZM434.6 103.6L434.6 103.6Q431.7 103.6 429.4 102.6Q427.1 101.6 425.7 99.5Q424.4 97.5 424.4 94.4L424.4 94.4Q424.4 91.9 425.4 90.2Q426.3 88.5 427.9 87.4Q429.6 86.4 431.6 85.8Q433.7 85.3 436.0 85.1L436.0 85.1Q438.6 84.8 440.2 84.6Q441.9 84.3 442.6 83.8Q443.4 83.3 443.4 82.3L443.4 82.3L443.4 82.2Q443.4 80.9 442.8 80.0Q442.3 79.1 441.2 78.6Q440.1 78.1 438.6 78.1L438.6 78.1Q437.0 78.1 435.8 78.6Q434.6 79.1 433.9 79.9Q433.2 80.7 432.8 81.6L432.8 81.6L425.3 80.4Q426.1 77.7 427.9 75.9Q429.7 74.0 432.5 73.0Q435.2 72.0 438.6 72.0L438.6 72.0Q441.1 72.0 443.4 72.6Q445.7 73.2 447.6 74.5Q449.4 75.7 450.5 77.7Q451.6 79.6 451.6 82.4L451.6 82.4L451.6 103L443.8 103L443.8 98.8L443.5 98.8Q442.8 100.2 441.6 101.3Q440.3 102.3 438.6 103.0Q436.9 103.6 434.6 103.6ZM436.9 97.8L436.9 97.8Q438.9 97.8 440.3 97.1Q441.8 96.3 442.6 95.0Q443.4 93.7 443.4 92.1L443.4 92.1L443.4 88.8Q443.1 89.0 442.3 89.2Q441.6 89.5 440.7 89.6Q439.8 89.8 438.9 89.9Q438.0 90.1 437.3 90.1L437.3 90.1Q435.8 90.4 434.7 90.9Q433.5 91.4 432.9 92.2Q432.3 93.0 432.3 94.2L432.3 94.2Q432.3 95.4 432.9 96.2Q433.5 97.0 434.5 97.4Q435.6 97.8 436.9 97.8ZM464.8 103L456.6 103L456.6 72.4L464.2 72.4L464.5 78.4Q465.1 76.7 466.1 75.4L466.1 75.4Q467.4 73.7 469.3 72.8Q471.2 72.0 473.2 72.0L473.2 72.0Q476.5 72.0 478.6 74.0L478.6 74.0Q480.2 75.7 481.1 78.8L481.1 78.8Q481.8 77.0 482.8 75.7L482.8 75.7Q484.3 73.8 486.5 72.9Q488.6 72.0 490.9 72.0L490.9 72.0Q493.7 72.0 495.9 73.2Q498.1 74.4 499.4 76.7Q500.7 79.0 500.7 82.4L500.7 82.4L500.7 103L492.5 103L492.5 83.9Q492.5 81.3 491.1 80.1Q489.7 78.8 487.6 78.8L487.6 78.8Q486.1 78.8 484.9 79.5Q483.8 80.2 483.2 81.4Q482.6 82.6 482.6 84.2L482.6 84.2L482.6 103L474.6 103L474.6 83.7Q474.6 81.5 473.3 80.2Q472.0 78.8 469.9 78.8L469.9 78.8Q468.4 78.8 467.3 79.5Q466.1 80.1 465.4 81.4Q464.8 82.7 464.8 84.5L464.8 84.5L464.8 103Z M532.1 103.6L532.1 103.6Q527.2 103.6 523.5 102.1Q519.9 100.6 517.9 97.6Q515.9 94.7 515.8 90.4L515.8 90.4L523.9 90.4Q524.0 92.4 525.1 93.8Q526.2 95.2 528.0 95.9Q529.7 96.5 532.0 96.5L532.0 96.5Q534.2 96.5 535.9 95.9Q537.5 95.3 538.5 94.1Q539.4 92.9 539.4 91.4L539.4 91.4Q539.4 90.0 538.5 89.0Q537.7 88.1 536.2 87.4Q534.6 86.7 532.4 86.2L532.4 86.2L527.9 85.1Q522.7 83.8 519.8 81.1Q516.9 78.4 516.9 74.0L516.9 74.0Q516.9 70.3 518.8 67.5Q520.8 64.8 524.3 63.2Q527.7 61.7 532.2 61.7L532.2 61.7Q536.7 61.7 540.0 63.3Q543.4 64.8 545.3 67.5Q547.2 70.3 547.2 73.9L547.2 73.9L539.2 73.9Q538.9 71.4 537.1 70.1Q535.2 68.7 532.1 68.7L532.1 68.7Q530.0 68.7 528.5 69.3Q527.0 69.9 526.2 71.0Q525.4 72.1 525.4 73.4L525.4 73.4Q525.4 74.9 526.3 75.9Q527.2 76.9 528.7 77.6Q530.2 78.2 531.9 78.6L531.9 78.6L535.6 79.5Q538.2 80.1 540.4 81.0Q542.6 82.0 544.3 83.5Q545.9 84.9 546.9 86.9Q547.8 88.8 547.8 91.4L547.8 91.4Q547.8 95.1 545.9 97.8Q544.1 100.6 540.5 102.1Q537.0 103.6 532.1 103.6ZM559.8 103L551.6 103L551.6 72.4L559.8 72.4L559.8 103ZM555.7 68.4L555.7 68.4Q553.8 68.4 552.5 67.2Q551.2 66.0 551.2 64.2L551.2 64.2Q551.2 62.5 552.5 61.2Q553.8 60.0 555.7 60.0L555.7 60.0Q557.6 60.0 558.9 61.2Q560.2 62.4 560.2 64.2L560.2 64.2Q560.2 66.0 558.9 67.2Q557.6 68.4 555.7 68.4ZM573.0 85.3L573.0 85.3L573.0 103L564.8 103L564.8 72.4L572.5 72.4L572.6 78.7Q573.8 75.8 575.8 74.1L575.8 74.1Q578.3 72.0 582.1 72.0L582.1 72.0Q585.3 72.0 587.7 73.4Q590.0 74.8 591.3 77.4Q592.6 80.0 592.6 83.6L592.6 83.6L592.6 103L584.4 103L584.4 85.0Q584.4 82.1 583.0 80.5Q581.5 78.9 578.9 78.9L578.9 78.9Q577.2 78.9 575.8 79.7Q574.5 80.4 573.7 81.8Q573.0 83.3 573.0 85.3ZM611.2 115.1L611.2 115.1Q607.4 115.1 604.6 114.1Q601.7 113.1 599.9 111.4Q598.2 109.8 597.5 107.6L597.5 107.6L604.5 105.6Q604.9 106.5 605.7 107.3Q606.5 108.1 607.9 108.6Q609.2 109.1 611.2 109.1L611.2 109.1Q614.3 109.1 616.1 107.7Q617.9 106.3 617.9 103.2L617.9 103.2L617.9 97.6L617.3 97.6Q616.7 98.8 615.7 100.0Q614.6 101.1 613.0 101.8Q611.3 102.6 608.8 102.6L608.8 102.6Q605.4 102.6 602.5 100.9Q599.7 99.3 598.0 96.0Q596.4 92.7 596.4 87.7L596.4 87.7Q596.4 82.5 598.1 79.0Q599.8 75.5 602.6 73.8Q605.4 72.0 608.8 72.0L608.8 72.0Q611.4 72.0 613.1 72.9Q614.9 73.8 616.0 75.1Q617.1 76.4 617.6 77.6L617.6 77.6L618.0 77.6L618.0 72.4L626.0 72.4L626.0 102.8Q626.0 106.9 624.1 109.6Q622.2 112.4 618.9 113.7Q615.6 115.1 611.2 115.1ZM611.4 96.3L611.4 96.3Q613.5 96.3 614.9 95.3Q616.4 94.3 617.2 92.3Q617.9 90.3 617.9 87.6L617.9 87.6Q617.9 84.9 617.2 82.9Q616.4 80.9 614.9 79.7Q613.5 78.6 611.4 78.6L611.4 78.6Q609.2 78.6 607.7 79.8Q606.3 80.9 605.5 83.0Q604.8 85.0 604.8 87.6L604.8 87.6Q604.8 90.3 605.5 92.2Q606.3 94.2 607.8 95.3Q609.2 96.3 611.4 96.3ZM639.2 85.3L639.2 85.3L639.2 103L631.0 103L631.0 62.3L639.1 62.3L639.1 78.3Q640.2 75.7 642.1 74.1L642.1 74.1Q644.5 72.0 648.4 72.0L648.4 72.0Q651.6 72.0 653.9 73.4Q656.3 74.8 657.6 77.4Q658.9 80.0 658.9 83.6L658.9 83.6L658.9 103L650.7 103L650.7 85.0Q650.7 82.1 649.2 80.5Q647.8 78.9 645.2 78.9L645.2 78.9Q643.4 78.9 642.1 79.7Q640.7 80.4 640.0 81.8Q639.2 83.3 639.2 85.3Z "/></g><mask id="satori_om-id-3"><rect x="285" y="133" width="231" height="17" fill="#fff" mask="url(#satori_om-id)"/></mask><g mask="url(#satori_om-id)" clip-path="url(#satori_cp-id)"><path fill="#ababb6" d="M290.0 147L286.2 147L286.2 136.8L289.8 136.8Q290.9 136.8 291.6 137.2Q292.3 137.5 292.6 138.2Q293.0 138.8 293.0 139.5L293.0 139.5Q293.0 140.2 292.7 140.6Q292.5 141.0 292.1 141.3Q291.7 141.5 291.3 141.7L291.3 141.7L291.3 141.8Q291.8 141.8 292.3 142.1Q292.7 142.4 293.0 142.9Q293.4 143.5 293.4 144.3L293.4 144.3Q293.4 145.1 293.0 145.7Q292.7 146.3 291.9 146.6Q291.2 147 290.0 147L290.0 147ZM287.5 142.4L287.5 145.9L289.9 145.9Q291.1 145.9 291.6 145.4Q292.1 144.9 292.1 144.3L292.1 144.3Q292.1 143.8 291.9 143.3Q291.6 142.9 291.1 142.6Q290.6 142.4 290.0 142.4L290.0 142.4L287.5 142.4ZM287.5 138.0L287.5 141.3L289.8 141.3Q290.3 141.3 290.8 141.1Q291.2 140.9 291.5 140.5Q291.7 140.1 291.7 139.5L291.7 139.5Q291.7 138.9 291.3 138.4Q290.8 138.0 289.8 138.0L289.8 138.0L287.5 138.0ZM303.4 147.2L303.4 147.2Q302.2 147.2 301.3 146.7Q300.4 146.2 299.9 145.4Q299.4 144.6 299.4 143.5L299.4 143.5L299.4 136.8L300.7 136.8L300.7 143.4Q300.7 144.2 301.0 144.7Q301.3 145.3 301.9 145.6Q302.5 146.0 303.4 146.0L303.4 146.0Q304.2 146.0 304.8 145.6Q305.4 145.3 305.7 144.7Q306.0 144.2 306.0 143.4L306.0 143.4L306.0 136.8L307.3 136.8L307.3 143.5Q307.3 144.6 306.9 145.4Q306.4 146.2 305.5 146.7Q304.6 147.2 303.4 147.2ZM313.8 136.8L315.1 136.8L315.1 147L313.8 147L313.8 136.8ZM327.6 147L321.6 147L321.6 136.8L322.9 136.8L322.9 145.9L327.6 145.9L327.6 147ZM336.7 147L336.7 147L333.5 147L333.5 136.8L336.8 136.8Q338.3 136.8 339.3 137.4Q340.4 138.0 341.0 139.2Q341.5 140.3 341.5 141.9L341.5 141.9Q341.5 143.5 341.0 144.6Q340.4 145.8 339.3 146.4Q338.2 147 336.7 147ZM334.8 138.0L334.8 145.9L336.6 145.9Q337.8 145.9 338.6 145.4Q339.5 144.9 339.9 144.0Q340.3 143.1 340.3 141.9L340.3 141.9Q340.3 140.7 339.9 139.8Q339.5 138.9 338.7 138.4Q337.9 138.0 336.7 138.0L336.7 138.0L334.8 138.0Z M358.2 145.1L358.2 145.1Q357.6 145.1 357.1 144.8Q356.6 144.5 356.3 144.0Q356.0 143.5 356.0 142.9L356.0 142.9Q356.0 142.3 356.3 141.8Q356.6 141.3 357.1 141.0Q357.6 140.8 358.2 140.8L358.2 140.8Q358.8 140.8 359.3 141.0Q359.8 141.3 360.1 141.8Q360.4 142.3 360.4 142.9L360.4 142.9Q360.4 143.5 360.1 144.0Q359.8 144.5 359.3 144.8Q358.8 145.1 358.2 145.1Z M378.6 147.2L378.6 147.2Q377.5 147.2 376.7 146.8Q375.9 146.5 375.4 145.8Q375.0 145.2 374.9 144.3L374.9 144.3L376.2 144.3Q376.3 144.9 376.6 145.3Q377.0 145.7 377.5 145.8Q378.0 146.0 378.6 146.0L378.6 146.0Q379.3 146.0 379.8 145.8Q380.4 145.6 380.7 145.2Q381.0 144.7 381.0 144.2L381.0 144.2Q381.0 143.7 380.8 143.4Q380.5 143.1 380.0 142.9Q379.6 142.7 379.0 142.5L379.0 142.5L377.8 142.2Q376.6 141.9 375.9 141.2Q375.2 140.6 375.2 139.5L375.2 139.5Q375.2 138.7 375.7 138.0Q376.1 137.4 376.9 137.0Q377.7 136.7 378.7 136.7L378.7 136.7Q379.7 136.7 380.5 137.0Q381.2 137.4 381.7 138.0Q382.1 138.6 382.2 139.4L382.2 139.4L380.9 139.4Q380.8 138.6 380.2 138.2Q379.6 137.8 378.6 137.8L378.6 137.8Q378.0 137.8 377.5 138.0Q377.0 138.3 376.7 138.6Q376.5 139.0 376.5 139.5L376.5 139.5Q376.5 140.0 376.8 140.3Q377.1 140.7 377.6 140.8Q378.0 141.0 378.4 141.1L378.4 141.1L379.4 141.4Q379.8 141.5 380.3 141.7Q380.8 141.9 381.3 142.2Q381.7 142.5 382.0 143.0Q382.3 143.5 382.3 144.2L382.3 144.2Q382.3 145.1 381.9 145.7Q381.4 146.4 380.6 146.8Q379.8 147.2 378.6 147.2ZM389.6 147L388.3 147L388.3 136.8L389.6 136.8L389.6 141.2L395.0 141.2L395.0 136.8L396.3 136.8L396.3 147L395.0 147L395.0 142.4L389.6 142.4L389.6 147ZM402.7 136.8L404.0 136.8L404.0 147L402.7 147L402.7 136.8ZM411.8 147L410.5 147L410.5 136.8L414.0 136.8Q415.2 136.8 415.9 137.2Q416.7 137.7 417.1 138.4Q417.4 139.1 417.4 140.1Q417.4 141.0 417.1 141.7Q416.7 142.4 415.9 142.9Q415.2 143.3 414.0 143.3L414.0 143.3L411.8 143.3L411.8 147ZM411.8 138.0L411.8 142.2L413.9 142.2Q414.7 142.2 415.2 141.9Q415.7 141.6 415.9 141.1Q416.2 140.7 416.2 140.1Q416.2 139.5 415.9 139.0Q415.7 138.5 415.2 138.2Q414.7 138.0 413.9 138.0L413.9 138.0L411.8 138.0Z M434.1 145.1L434.1 145.1Q433.5 145.1 433.0 144.8Q432.5 144.5 432.2 144.0Q431.9 143.5 431.9 142.9L431.9 142.9Q431.9 142.3 432.2 141.8Q432.5 141.3 433.0 141.0Q433.5 140.8 434.1 140.8L434.1 140.8Q434.7 140.8 435.2 141.0Q435.7 141.3 436.0 141.8Q436.3 142.3 436.3 142.9L436.3 142.9Q436.3 143.5 436.0 144.0Q435.7 144.5 435.2 144.8Q434.7 145.1 434.1 145.1Z M454.4 147.2L454.4 147.2Q453.3 147.2 452.5 146.8Q451.7 146.5 451.3 145.8Q450.8 145.2 450.7 144.3L450.7 144.3L452.1 144.3Q452.1 144.9 452.5 145.3Q452.8 145.7 453.3 145.8Q453.8 146.0 454.4 146.0L454.4 146.0Q455.1 146.0 455.7 145.8Q456.2 145.6 456.5 145.2Q456.9 144.7 456.9 144.2L456.9 144.2Q456.9 143.7 456.6 143.4Q456.3 143.1 455.9 142.9Q455.4 142.7 454.9 142.5L454.9 142.5L453.6 142.2Q452.4 141.9 451.7 141.2Q451.0 140.6 451.0 139.5L451.0 139.5Q451.0 138.7 451.5 138.0Q452.0 137.4 452.7 137.0Q453.5 136.7 454.5 136.7L454.5 136.7Q455.5 136.7 456.3 137.0Q457.1 137.4 457.5 138.0Q458.0 138.6 458.0 139.4L458.0 139.4L456.7 139.4Q456.6 138.6 456.0 138.2Q455.4 137.8 454.5 137.8L454.5 137.8Q453.8 137.8 453.3 138.0Q452.8 138.3 452.6 138.6Q452.3 139.0 452.3 139.5L452.3 139.5Q452.3 140.0 452.6 140.3Q453.0 140.7 453.4 140.8Q453.9 141.0 454.2 141.1L454.2 141.1L455.3 141.4Q455.7 141.5 456.2 141.7Q456.7 141.9 457.1 142.2Q457.6 142.5 457.8 143.0Q458.1 143.5 458.1 144.2L458.1 144.2Q458.1 145.1 457.7 145.7Q457.3 146.4 456.4 146.8Q455.6 147.2 454.4 147.2ZM468.3 147.1L468.3 147.1Q467.0 147.1 466.0 146.5Q464.9 145.9 464.3 144.7Q463.8 143.5 463.8 141.9L463.8 141.9Q463.8 140.3 464.3 139.1Q464.9 137.9 466.0 137.3Q467.0 136.7 468.3 136.7L468.3 136.7Q469.1 136.7 469.7 136.9Q470.4 137.1 471.0 137.6Q471.5 138.0 471.9 138.6Q472.3 139.2 472.4 140.0L472.4 140.0L471.1 140.0Q471.0 139.5 470.7 139.1Q470.5 138.7 470.1 138.4Q469.7 138.2 469.2 138.0Q468.8 137.9 468.3 137.9L468.3 137.9Q467.4 137.9 466.6 138.3Q465.9 138.8 465.5 139.7Q465.0 140.6 465.0 141.9L465.0 141.9Q465.0 143.2 465.5 144.1Q465.9 145.0 466.6 145.5Q467.4 145.9 468.3 145.9L468.3 145.9Q468.8 145.9 469.2 145.8Q469.7 145.7 470.1 145.4Q470.5 145.1 470.7 144.7Q471.0 144.3 471.1 143.8L471.1 143.8L472.4 143.8Q472.3 144.6 471.9 145.2Q471.5 145.8 471.0 146.2Q470.4 146.7 469.7 146.9Q469.1 147.1 468.3 147.1ZM478.9 147L477.5 147L481.2 136.8L482.7 136.8L486.5 147L485.1 147L484.1 144.2L479.9 144.2L478.9 147ZM480.3 143.0L483.7 143.0L482.9 141.0Q482.7 140.4 482.5 139.6L482.5 139.6Q482.3 138.9 482.0 137.9L482.0 137.9Q481.7 138.9 481.4 139.6L481.4 139.6Q481.2 140.4 481.0 141.0L481.0 141.0L480.3 143.0ZM498.1 147L492.0 147L492.0 136.8L493.3 136.8L493.3 145.9L498.1 145.9L498.1 147ZM510.2 147L504.0 147L504.0 136.8L510.2 136.8L510.2 138.0L505.3 138.0L505.3 141.3L509.8 141.3L509.8 142.4L505.3 142.4L505.3 145.9L510.2 145.9L510.2 147Z "/></g><mask id="satori_om-id-4"><rect x="186" y="182" width="428" height="30" fill="#fff" mask="url(#satori_om-id)"/></mask><defs><clipPath id="satori_bc-id-4-0" clip-path="url(#satori_cp-id)"><path x="186" y="182" width="163" height="30" d="M201,182 h133 a15,15 0 0 1 15,15 v0 a15,15 0 0 1 -15,15 h-133 a15,15 0 0 1 -15,-15 v0 a15,15 0 0 1 15,-15"/></clipPath></defs><mask id="satori_om-id-4-0"><rect x="187" y="183" width="161" height="28" fill="#fff" mask="url(#satori_om-id)"/><path width="163" height="30" fill="none" stroke="#000" stroke-width="2" d="M190.393,186.393 A15,15 0 0 1 201,182 h133 a15,15 0 0 1 15,15 v0 a15,15 0 0 1 -15,15 h-133 a15,15 0 0 1 -15,-15 v0 A15,15 0 0 1 190.393,186.393"/></mask><path x="186" y="182" width="163" height="30" fill="#18181b" d="M201,182 h133 a15,15 0 0 1 15,15 v0 a15,15 0 0 1 -15,15 h-133 a15,15 0 0 1 -15,-15 v0 a15,15 0 0 1 15,-15" clip-path="url(#satori_cp-id)" mask="url(#satori_om-id)"/><path width="163" height="30" clip-path="url(#satori_bc-id-4-0)" fill="none" stroke="#27272a" stroke-width="2" d="M190.393,186.393 A15,15 0 0 1 201,182 h133 a15,15 0 0 1 15,15 v0 a15,15 0 0 1 -15,15 h-133 a15,15 0 0 1 -15,-15 v0 A15,15 0 0 1 190.393,186.393"/><g mask="url(#satori_om-id)" clip-path="url(#satori_cp-id)"><path fill="#a1a1aa" d="M209.3 202L208.1 202L208.1 192.5L213.9 192.5L213.9 193.6L209.3 193.6L209.3 196.8L213.4 196.8L213.4 197.9L209.3 197.9L209.3 202ZM218.1 202.1L218.1 202.1Q217.4 202.1 216.8 201.8Q216.3 201.5 216.0 200.9Q215.7 200.3 215.7 199.4L215.7 199.4L215.7 194.9L216.8 194.9L216.8 199.3Q216.8 200.1 217.3 200.6Q217.7 201.1 218.4 201.1L218.4 201.1Q218.9 201.1 219.3 200.8Q219.7 200.6 220.0 200.2Q220.2 199.8 220.2 199.2L220.2 199.2L220.2 194.9L221.4 194.9L221.4 202L220.3 202L220.3 200.7Q219.9 201.4 219.5 201.7L219.5 201.7Q218.9 202.1 218.1 202.1ZM223.4 192.5L224.5 192.5L224.5 202L223.4 202L223.4 192.5ZM226.5 192.5L227.7 192.5L227.7 202L226.5 202L226.5 192.5ZM229.6 197.4L233.7 197.4L233.7 198.5L229.6 198.5L229.6 197.4ZM238.8 202.2L238.8 202.2Q237.8 202.2 237.0 201.8Q236.3 201.5 235.9 200.9Q235.4 200.3 235.4 199.5L235.4 199.5L236.6 199.5Q236.7 200.1 237.0 200.4Q237.3 200.7 237.8 200.9Q238.3 201.1 238.8 201.1L238.8 201.1Q239.4 201.1 240.0 200.9Q240.5 200.7 240.8 200.3Q241.1 199.9 241.1 199.4L241.1 199.4Q241.1 198.9 240.8 198.7Q240.6 198.4 240.1 198.2Q239.7 198.0 239.2 197.9L239.2 197.9L238.1 197.5Q236.9 197.2 236.3 196.6Q235.6 196.0 235.6 195.1L235.6 195.1Q235.6 194.3 236.1 193.7Q236.5 193.1 237.2 192.7Q238.0 192.4 238.9 192.4L238.9 192.4Q239.8 192.4 240.5 192.7Q241.3 193.1 241.7 193.6Q242.1 194.2 242.1 194.9L242.1 194.9L240.9 194.9Q240.9 194.2 240.3 193.9Q239.7 193.5 238.9 193.5L238.9 193.5Q238.2 193.5 237.8 193.7Q237.3 193.9 237.1 194.2Q236.8 194.6 236.8 195.0L236.8 195.0Q236.8 195.5 237.1 195.8Q237.4 196.1 237.9 196.3Q238.3 196.5 238.6 196.5L238.6 196.5L239.6 196.8Q239.9 196.9 240.4 197.1Q240.9 197.3 241.3 197.6Q241.7 197.9 242.0 198.3Q242.2 198.8 242.2 199.4L242.2 199.4Q242.2 200.2 241.8 200.8Q241.4 201.4 240.7 201.8Q239.9 202.2 238.8 202.2ZM245.3 194.9L246.8 194.9L246.8 195.9L245.3 195.9L245.3 200.2Q245.3 200.6 245.5 200.9Q245.7 201.1 246.2 201.1L246.2 201.1Q246.3 201.1 246.4 201.0Q246.6 201.0 246.7 201.0L246.7 201.0L247.0 202.0Q246.8 202.0 246.6 202.1Q246.3 202.1 246.1 202.1L246.1 202.1Q245.2 202.1 244.7 201.6Q244.2 201.1 244.2 200.2L244.2 200.2L244.2 195.9L243.1 195.9L243.1 194.9L244.2 194.9L244.2 193.2L245.3 193.2L245.3 194.9ZM250.2 202.2L250.2 202.2Q249.5 202.2 249.0 201.9Q248.5 201.7 248.1 201.2Q247.8 200.7 247.8 200.0L247.8 200.0Q247.8 199.4 248.0 199.0Q248.3 198.6 248.7 198.4Q249.1 198.2 249.6 198.1Q250.1 198.0 250.6 197.9L250.6 197.9Q251.2 197.8 251.6 197.8Q252.0 197.7 252.2 197.6Q252.4 197.5 252.4 197.2L252.4 197.2L252.4 197.2Q252.4 196.8 252.2 196.5Q252.1 196.1 251.7 196.0Q251.4 195.8 250.9 195.8L250.9 195.8Q250.4 195.8 250.0 196.0Q249.7 196.1 249.4 196.4Q249.2 196.6 249.1 196.9L249.1 196.9L248.0 196.5Q248.3 195.8 248.7 195.5Q249.2 195.1 249.8 195.0Q250.3 194.8 250.9 194.8L250.9 194.8Q251.2 194.8 251.7 194.9Q252.1 195.0 252.6 195.2Q253.0 195.5 253.3 196.0Q253.5 196.5 253.5 197.3L253.5 197.3L253.5 202L252.4 202L252.4 201.0L252.3 201.0Q252.2 201.3 251.9 201.5Q251.7 201.8 251.2 202.0Q250.8 202.2 250.2 202.2ZM250.4 201.2L250.4 201.2Q251.1 201.2 251.5 200.9Q251.9 200.7 252.2 200.3Q252.4 199.9 252.4 199.4L252.4 199.4L252.4 198.5Q252.3 198.5 252.1 198.6Q251.8 198.7 251.5 198.7Q251.2 198.8 251.0 198.8Q250.7 198.8 250.5 198.9L250.5 198.9Q250.1 198.9 249.7 199.0Q249.4 199.2 249.2 199.4Q249.0 199.6 249.0 200.0L249.0 200.0Q249.0 200.4 249.1 200.7Q249.3 200.9 249.7 201.0Q250.0 201.2 250.4 201.2ZM258.4 202.2L258.4 202.2Q257.5 202.2 256.7 201.7Q256.0 201.2 255.6 200.4Q255.2 199.6 255.2 198.5L255.2 198.5Q255.2 197.4 255.6 196.6Q256.0 195.7 256.7 195.3Q257.5 194.8 258.4 194.8L258.4 194.8Q258.9 194.8 259.4 194.9Q259.9 195.1 260.2 195.3Q260.6 195.6 260.9 195.9Q261.2 196.3 261.3 196.8L261.3 196.8L260.2 197.1Q260.1 196.8 260.0 196.6Q259.8 196.4 259.6 196.2Q259.4 196.0 259.1 195.9Q258.8 195.8 258.4 195.8L258.4 195.8Q257.7 195.8 257.3 196.2Q256.8 196.6 256.6 197.2Q256.4 197.8 256.4 198.5L256.4 198.5Q256.4 199.2 256.6 199.8Q256.8 200.4 257.3 200.8Q257.7 201.1 258.4 201.1L258.4 201.1Q258.8 201.1 259.1 201.0Q259.4 200.9 259.6 200.8Q259.8 200.6 260.0 200.3Q260.2 200.1 260.2 199.8L260.2 199.8L261.3 200.1Q261.2 200.6 260.9 201.0Q260.6 201.4 260.3 201.6Q259.9 201.9 259.4 202.0Q258.9 202.2 258.4 202.2ZM264.1 202L263.0 202L263.0 192.5L264.1 192.5L264.1 198.0L264.2 198.0L267.3 194.9L268.7 194.9L265.7 198.0L268.9 202L267.4 202L264.9 198.7L264.1 199.4L264.1 202Z M279.7 202L273.9 202L273.9 192.5L279.7 192.5L279.7 193.6L275.1 193.6L275.1 196.7L279.3 196.7L279.3 197.8L275.1 197.8L275.1 200.9L279.7 200.9L279.7 202ZM282.7 197.7L282.7 197.7L282.7 202L281.6 202L281.6 194.9L282.7 194.9L282.7 196.2Q283.0 195.6 283.4 195.2L283.4 195.2Q284.0 194.8 284.8 194.8L284.8 194.8Q285.6 194.8 286.1 195.1Q286.6 195.4 286.9 196.0Q287.2 196.6 287.2 197.5L287.2 197.5L287.2 202L286.1 202L286.1 197.6Q286.1 196.8 285.7 196.3Q285.2 195.8 284.5 195.8L284.5 195.8Q284.0 195.8 283.6 196.1Q283.2 196.3 282.9 196.7Q282.7 197.1 282.7 197.7ZM292.1 204.8L292.1 204.8Q291.3 204.8 290.8 204.6Q290.2 204.4 289.8 204.1Q289.4 203.7 289.2 203.4L289.2 203.4L290.1 202.8Q290.3 203.0 290.5 203.2Q290.7 203.5 291.1 203.6Q291.5 203.8 292.1 203.8L292.1 203.8Q293.0 203.8 293.5 203.4Q294.1 203.0 294.1 202.1L294.1 202.1L294.1 200.7L294.0 200.7Q293.8 200.9 293.6 201.2Q293.4 201.5 293.0 201.7Q292.6 201.9 291.9 201.9L291.9 201.9Q291.0 201.9 290.4 201.5Q289.7 201.1 289.3 200.3Q288.9 199.5 288.9 198.4L288.9 198.4Q288.9 197.3 289.3 196.5Q289.7 195.7 290.4 195.3Q291.0 194.8 291.9 194.8L291.9 194.8Q292.6 194.8 293.0 195.0Q293.4 195.3 293.7 195.6Q293.9 195.8 294.0 196.0L294.0 196.0L294.1 196.0L294.1 194.9L295.2 194.9L295.2 202.2Q295.2 203.1 294.8 203.7Q294.4 204.3 293.7 204.5Q293.0 204.8 292.1 204.8ZM292.1 200.9L292.1 200.9Q292.7 200.9 293.2 200.6Q293.6 200.3 293.9 199.7Q294.1 199.2 294.1 198.4L294.1 198.4Q294.1 197.6 293.9 197.1Q293.6 196.5 293.2 196.2Q292.7 195.8 292.1 195.8L292.1 195.8Q291.4 195.8 291.0 196.2Q290.5 196.5 290.3 197.1Q290.1 197.7 290.1 198.4L290.1 198.4Q290.1 199.1 290.3 199.7Q290.5 200.2 291.0 200.6Q291.4 200.9 292.1 200.9ZM298.4 202L297.2 202L297.2 194.9L298.4 194.9L298.4 202ZM297.8 193.7L297.8 193.7Q297.5 193.7 297.2 193.5Q297.0 193.3 297.0 193.0L297.0 193.0Q297.0 192.7 297.2 192.4Q297.5 192.2 297.8 192.2L297.8 192.2Q298.1 192.2 298.4 192.4Q298.6 192.7 298.6 193.0L298.6 193.0Q298.6 193.3 298.4 193.5Q298.1 193.7 297.8 193.7ZM301.5 197.7L301.5 197.7L301.5 202L300.4 202L300.4 194.9L301.5 194.9L301.5 196.2Q301.8 195.6 302.2 195.2L302.2 195.2Q302.8 194.8 303.6 194.8L303.6 194.8Q304.4 194.8 304.9 195.1Q305.4 195.4 305.7 196.0Q306.0 196.6 306.0 197.5L306.0 197.5L306.0 202L304.9 202L304.9 197.6Q304.9 196.8 304.5 196.3Q304.0 195.8 303.3 195.8L303.3 195.8Q302.8 195.8 302.4 196.1Q302.0 196.3 301.7 196.7Q301.5 197.1 301.5 197.7ZM311.0 202.2L311.0 202.2Q310.0 202.2 309.3 201.7Q308.5 201.2 308.1 200.4Q307.7 199.6 307.7 198.5Q307.7 197.4 308.1 196.6Q308.5 195.8 309.2 195.3Q309.9 194.8 310.9 194.8L310.9 194.8Q311.5 194.8 312.0 195.0Q312.6 195.2 313.0 195.6Q313.5 196.0 313.7 196.7Q314.0 197.4 314.0 198.4L314.0 198.4L314.0 198.8L308.9 198.8Q308.9 199.5 309.1 200.0L309.1 200.0Q309.4 200.6 309.9 200.9Q310.4 201.1 311.0 201.1L311.0 201.1Q311.5 201.1 311.8 201.0Q312.1 200.9 312.4 200.7Q312.6 200.4 312.8 200.0L312.8 200.0L313.9 200.3Q313.7 200.9 313.3 201.3Q312.9 201.7 312.3 201.9Q311.8 202.2 311.0 202.2ZM308.9 197.9L308.9 197.9L312.8 197.9Q312.8 197.4 312.6 197.0L312.6 197.0Q312.4 196.4 312.0 196.1Q311.5 195.8 310.9 195.8Q310.3 195.8 309.8 196.1Q309.3 196.5 309.1 197.0L309.1 197.0Q308.9 197.4 308.9 197.9ZM318.6 202.2L318.6 202.2Q317.6 202.2 316.8 201.7Q316.1 201.2 315.7 200.4Q315.3 199.6 315.3 198.5Q315.3 197.4 315.7 196.6Q316.1 195.8 316.8 195.3Q317.5 194.8 318.5 194.8L318.5 194.8Q319.0 194.8 319.6 195.0Q320.1 195.2 320.6 195.6Q321.0 196.0 321.3 196.7Q321.6 197.4 321.6 198.4L321.6 198.4L321.6 198.8L316.4 198.8Q316.5 199.5 316.7 200.0L316.7 200.0Q317.0 200.6 317.5 200.9Q318.0 201.1 318.6 201.1L318.6 201.1Q319.0 201.1 319.4 201.0Q319.7 200.9 320.0 200.7Q320.2 200.4 320.4 200.0L320.4 200.0L321.5 200.3Q321.3 200.9 320.9 201.3Q320.5 201.7 319.9 201.9Q319.3 202.2 318.6 202.2ZM316.4 197.9L316.4 197.9L320.4 197.9Q320.4 197.4 320.2 197.0L320.2 197.0Q320.0 196.4 319.6 196.1Q319.1 195.8 318.5 195.8Q317.8 195.8 317.4 196.1Q316.9 196.5 316.7 197.0L316.7 197.0Q316.5 197.4 316.4 197.9ZM324.3 202L323.2 202L323.2 194.9L324.3 194.9L324.3 196.0L324.4 196.0Q324.6 195.5 325.1 195.1Q325.6 194.8 326.2 194.8L326.2 194.8Q326.4 194.8 326.5 194.8Q326.7 194.8 326.8 194.8L326.8 194.8L326.8 196.0Q326.8 196.0 326.6 195.9Q326.3 195.9 326.1 195.9L326.1 195.9Q325.6 195.9 325.2 196.1Q324.8 196.3 324.6 196.7Q324.3 197.1 324.3 197.6L324.3 197.6L324.3 202Z "/></g><defs><clipPath id="satori_bc-id-4-1" clip-path="url(#satori_cp-id)"><path x="361" y="182" width="123" height="30" d="M376,182 h93 a15,15 0 0 1 15,15 v0 a15,15 0 0 1 -15,15 h-93 a15,15 0 0 1 -15,-15 v0 a15,15 0 0 1 15,-15"/></clipPath></defs><mask id="satori_om-id-4-1"><rect x="362" y="183" width="121" height="28" fill="#fff" mask="url(#satori_om-id)"/><path width="123" height="30" fill="none" stroke="#000" stroke-width="2" d="M365.39300000000003,186.393 A15,15 0 0 1 376,182 h93 a15,15 0 0 1 15,15 v0 a15,15 0 0 1 -15,15 h-93 a15,15 0 0 1 -15,-15 v0 A15,15 0 0 1 365.39300000000003,186.393"/></mask><path x="361" y="182" width="123" height="30" fill="#18181b" d="M376,182 h93 a15,15 0 0 1 15,15 v0 a15,15 0 0 1 -15,15 h-93 a15,15 0 0 1 -15,-15 v0 a15,15 0 0 1 15,-15" clip-path="url(#satori_cp-id)" mask="url(#satori_om-id)"/><path width="123" height="30" clip-path="url(#satori_bc-id-4-1)" fill="none" stroke="#27272a" stroke-width="2" d="M365.39300000000003,186.393 A15,15 0 0 1 376,182 h93 a15,15 0 0 1 15,15 v0 a15,15 0 0 1 -15,15 h-93 a15,15 0 0 1 -15,-15 v0 A15,15 0 0 1 365.39300000000003,186.393"/><g mask="url(#satori_om-id)" clip-path="url(#satori_cp-id)"><path fill="#a1a1aa" d="M387.0 202.1L387.0 202.1Q385.8 202.1 384.8 201.5Q383.9 201.0 383.3 199.9Q382.8 198.8 382.8 197.3L382.8 197.3Q382.8 195.8 383.3 194.7Q383.9 193.6 384.8 193.0Q385.8 192.4 387.0 192.4L387.0 192.4Q388.2 192.4 389.1 193.0Q390.1 193.6 390.6 194.7Q391.2 195.8 391.2 197.3L391.2 197.3Q391.2 198.8 390.6 199.9Q390.1 201.0 389.1 201.5Q388.2 202.1 387.0 202.1ZM387.0 201.0L387.0 201.0Q387.8 201.0 388.5 200.6Q389.2 200.2 389.6 199.3Q390.0 198.5 390.0 197.3L390.0 197.3Q390.0 196.1 389.6 195.2Q389.2 194.4 388.5 194.0Q387.8 193.5 387.0 193.5L387.0 193.5Q386.1 193.5 385.4 194.0Q384.8 194.4 384.4 195.2Q383.9 196.1 383.9 197.3L383.9 197.3Q383.9 198.5 384.4 199.3Q384.8 200.1 385.4 200.6Q386.1 201.0 387.0 201.0ZM394.1 204.7L392.9 204.7L392.9 194.9L394.0 194.9L394.0 196.0L394.2 196.0Q394.3 195.8 394.5 195.6Q394.7 195.3 395.1 195.0Q395.5 194.8 396.2 194.8L396.2 194.8Q397.1 194.8 397.8 195.3Q398.5 195.7 398.9 196.5Q399.2 197.3 399.2 198.5L399.2 198.5Q399.2 199.6 398.9 200.4Q398.5 201.3 397.8 201.7Q397.1 202.2 396.2 202.2L396.2 202.2Q395.6 202.2 395.2 201.9Q394.7 201.7 394.5 201.4Q394.3 201.1 394.2 200.9L394.2 200.9L394.1 200.9L394.1 204.7ZM396.1 201.1L396.1 201.1Q396.7 201.1 397.2 200.8Q397.6 200.4 397.9 199.8Q398.1 199.2 398.1 198.5L398.1 198.5Q398.1 197.7 397.9 197.1Q397.6 196.5 397.2 196.2Q396.7 195.8 396.1 195.8L396.1 195.8Q395.4 195.8 395.0 196.2Q394.5 196.5 394.3 197.1Q394.1 197.7 394.1 198.5L394.1 198.5Q394.1 199.2 394.3 199.8Q394.5 200.5 395.0 200.8Q395.4 201.1 396.1 201.1ZM403.9 202.2L403.9 202.2Q402.9 202.2 402.1 201.7Q401.4 201.2 401.0 200.4Q400.6 199.6 400.6 198.5Q400.6 197.4 401.0 196.6Q401.3 195.8 402.1 195.3Q402.8 194.8 403.8 194.8L403.8 194.8Q404.3 194.8 404.9 195.0Q405.4 195.2 405.9 195.6Q406.3 196.0 406.6 196.7Q406.8 197.4 406.8 198.4L406.8 198.4L406.8 198.8L401.7 198.8Q401.7 199.5 402.0 200.0L402.0 200.0Q402.3 200.6 402.8 200.9Q403.2 201.1 403.9 201.1L403.9 201.1Q404.3 201.1 404.7 201.0Q405.0 200.9 405.2 200.7Q405.5 200.4 405.6 200.0L405.6 200.0L406.7 200.3Q406.6 200.9 406.2 201.3Q405.8 201.7 405.2 201.9Q404.6 202.2 403.9 202.2ZM401.7 197.9L401.7 197.9L405.7 197.9Q405.6 197.4 405.5 197.0L405.5 197.0Q405.3 196.4 404.8 196.1Q404.4 195.8 403.8 195.8Q403.1 195.8 402.7 196.1Q402.2 196.5 402.0 197.0L402.0 197.0Q401.8 197.4 401.7 197.9ZM409.6 197.7L409.6 197.7L409.6 202L408.5 202L408.5 194.9L409.6 194.9L409.6 196.2Q409.9 195.6 410.4 195.2L410.4 195.2Q411.0 194.8 411.8 194.8L411.8 194.8Q412.5 194.8 413.0 195.1Q413.6 195.4 413.9 196.0Q414.2 196.6 414.2 197.5L414.2 197.5L414.2 202L413.0 202L413.0 197.6Q413.0 196.8 412.6 196.3Q412.2 195.8 411.4 195.8L411.4 195.8Q410.9 195.8 410.5 196.1Q410.1 196.3 409.9 196.7Q409.6 197.1 409.6 197.7Z M423.0 202.2L423.0 202.2Q422.0 202.2 421.2 201.8Q420.5 201.5 420.0 200.9Q419.6 200.3 419.6 199.5L419.6 199.5L420.8 199.5Q420.8 200.1 421.2 200.4Q421.5 200.7 421.9 200.9Q422.4 201.1 423.0 201.1L423.0 201.1Q423.6 201.1 424.1 200.9Q424.6 200.7 424.9 200.3Q425.2 199.9 425.2 199.4L425.2 199.4Q425.2 198.9 425.0 198.7Q424.7 198.4 424.3 198.2Q423.9 198.0 423.4 197.9L423.4 197.9L422.2 197.5Q421.1 197.2 420.5 196.6Q419.8 196.0 419.8 195.1L419.8 195.1Q419.8 194.3 420.3 193.7Q420.7 193.1 421.4 192.7Q422.2 192.4 423.1 192.4L423.1 192.4Q424.0 192.4 424.7 192.7Q425.4 193.1 425.9 193.6Q426.3 194.2 426.3 194.9L426.3 194.9L425.1 194.9Q425.0 194.2 424.5 193.9Q423.9 193.5 423.0 193.5L423.0 193.5Q422.4 193.5 422.0 193.7Q421.5 193.9 421.2 194.2Q421.0 194.6 421.0 195.0L421.0 195.0Q421.0 195.5 421.3 195.8Q421.6 196.1 422.0 196.3Q422.5 196.5 422.8 196.5L422.8 196.5L423.7 196.8Q424.1 196.9 424.6 197.1Q425.0 197.3 425.5 197.6Q425.9 197.9 426.2 198.3Q426.4 198.8 426.4 199.4L426.4 199.4Q426.4 200.2 426.0 200.8Q425.6 201.4 424.8 201.8Q424.1 202.2 423.0 202.2ZM431.0 202.2L431.0 202.2Q430.1 202.2 429.4 201.7Q428.6 201.2 428.2 200.4Q427.8 199.6 427.8 198.5L427.8 198.5Q427.8 197.4 428.2 196.6Q428.6 195.7 429.4 195.3Q430.1 194.8 431.0 194.8L431.0 194.8Q432.0 194.8 432.7 195.3Q433.5 195.7 433.9 196.6Q434.3 197.4 434.3 198.5L434.3 198.5Q434.3 199.6 433.9 200.4Q433.5 201.2 432.7 201.7Q432.0 202.2 431.0 202.2ZM431.0 201.1L431.0 201.1Q431.8 201.1 432.2 200.8Q432.7 200.4 432.9 199.8Q433.1 199.2 433.1 198.5L433.1 198.5Q433.1 197.8 432.9 197.2Q432.7 196.6 432.2 196.2Q431.8 195.8 431.0 195.8L431.0 195.8Q430.3 195.8 429.9 196.2Q429.4 196.6 429.2 197.2Q429.0 197.8 429.0 198.5L429.0 198.5Q429.0 199.2 429.2 199.8Q429.4 200.4 429.9 200.8Q430.3 201.1 431.0 201.1ZM438.4 202.1L438.4 202.1Q437.6 202.1 437.1 201.8Q436.6 201.5 436.3 200.9Q436.0 200.3 436.0 199.4L436.0 199.4L436.0 194.9L437.1 194.9L437.1 199.3Q437.1 200.1 437.5 200.6Q438.0 201.1 438.7 201.1L438.7 201.1Q439.2 201.1 439.6 200.8Q440.0 200.6 440.3 200.2Q440.5 199.8 440.5 199.2L440.5 199.2L440.5 194.9L441.6 194.9L441.6 202L440.5 202L440.5 200.7Q440.2 201.4 439.8 201.7L439.8 201.7Q439.1 202.1 438.4 202.1ZM444.8 202L443.6 202L443.6 194.9L444.7 194.9L444.7 196.0L444.8 196.0Q445.0 195.5 445.5 195.1Q446.0 194.8 446.7 194.8L446.7 194.8Q446.8 194.8 447.0 194.8Q447.1 194.8 447.2 194.8L447.2 194.8L447.2 196.0Q447.2 196.0 447.0 195.9Q446.8 195.9 446.6 195.9L446.6 195.9Q446.0 195.9 445.6 196.1Q445.2 196.3 445.0 196.7Q444.8 197.1 444.8 197.6L444.8 197.6L444.8 202ZM451.4 202.2L451.4 202.2Q450.5 202.2 449.7 201.7Q449.0 201.2 448.6 200.4Q448.2 199.6 448.2 198.5L448.2 198.5Q448.2 197.4 448.6 196.6Q449.0 195.7 449.7 195.3Q450.5 194.8 451.4 194.8L451.4 194.8Q451.9 194.8 452.4 194.9Q452.9 195.1 453.2 195.3Q453.6 195.6 453.9 195.9Q454.2 196.3 454.3 196.8L454.3 196.8L453.2 197.1Q453.1 196.8 453.0 196.6Q452.8 196.4 452.6 196.2Q452.4 196.0 452.1 195.9Q451.8 195.8 451.4 195.8L451.4 195.8Q450.7 195.8 450.3 196.2Q449.8 196.6 449.6 197.2Q449.4 197.8 449.4 198.5L449.4 198.5Q449.4 199.2 449.6 199.8Q449.8 200.4 450.3 200.8Q450.7 201.1 451.4 201.1L451.4 201.1Q451.8 201.1 452.1 201.0Q452.4 200.9 452.6 200.8Q452.8 200.6 453.0 200.3Q453.2 200.1 453.2 199.8L453.2 199.8L454.3 200.1Q454.2 200.6 453.9 201.0Q453.6 201.4 453.3 201.6Q452.9 201.9 452.4 202.0Q451.9 202.2 451.4 202.2ZM458.9 202.2L458.9 202.2Q457.9 202.2 457.2 201.7Q456.4 201.2 456.0 200.4Q455.6 199.6 455.6 198.5Q455.6 197.4 456.0 196.6Q456.4 195.8 457.1 195.3Q457.8 194.8 458.8 194.8L458.8 194.8Q459.4 194.8 459.9 195.0Q460.5 195.2 460.9 195.6Q461.4 196.0 461.6 196.7Q461.9 197.4 461.9 198.4L461.9 198.4L461.9 198.8L456.8 198.8Q456.8 199.5 457.0 200.0L457.0 200.0Q457.3 200.6 457.8 200.9Q458.3 201.1 459.0 201.1L459.0 201.1Q459.4 201.1 459.7 201.0Q460.1 200.9 460.3 200.7Q460.6 200.4 460.7 200.0L460.7 200.0L461.8 200.3Q461.6 200.9 461.2 201.3Q460.8 201.7 460.3 201.9Q459.7 202.2 458.9 202.2ZM456.8 197.9L456.8 197.9L460.7 197.9Q460.7 197.4 460.5 197.0L460.5 197.0Q460.3 196.4 459.9 196.1Q459.5 195.8 458.8 195.8Q458.2 195.8 457.7 196.1Q457.3 196.5 457.0 197.0L457.0 197.0Q456.8 197.4 456.8 197.9Z "/></g><defs><clipPath id="satori_bc-id-4-2" clip-path="url(#satori_cp-id)"><path x="496" y="182" width="118" height="30" d="M511,182 h88 a15,15 0 0 1 15,15 v0 a15,15 0 0 1 -15,15 h-88 a15,15 0 0 1 -15,-15 v0 a15,15 0 0 1 15,-15"/></clipPath></defs><mask id="satori_om-id-4-2"><rect x="497" y="183" width="116" height="28" fill="#fff" mask="url(#satori_om-id)"/><path width="118" height="30" fill="none" stroke="#000" stroke-width="2" d="M500.39300000000003,186.393 A15,15 0 0 1 511,182 h88 a15,15 0 0 1 15,15 v0 a15,15 0 0 1 -15,15 h-88 a15,15 0 0 1 -15,-15 v0 A15,15 0 0 1 500.39300000000003,186.393"/></mask><path x="496" y="182" width="118" height="30" fill="#18181b" d="M511,182 h88 a15,15 0 0 1 15,15 v0 a15,15 0 0 1 -15,15 h-88 a15,15 0 0 1 -15,-15 v0 a15,15 0 0 1 15,-15" clip-path="url(#satori_cp-id)" mask="url(#satori_om-id)"/><path width="118" height="30" clip-path="url(#satori_bc-id-4-2)" fill="none" stroke="#27272a" stroke-width="2" d="M500.39300000000003,186.393 A15,15 0 0 1 511,182 h88 a15,15 0 0 1 15,15 v0 a15,15 0 0 1 -15,15 h-88 a15,15 0 0 1 -15,-15 v0 A15,15 0 0 1 500.39300000000003,186.393"/><g mask="url(#satori_om-id)" clip-path="url(#satori_cp-id)"><path fill="#a1a1aa" d="M518.6 202L517.3 202L520.8 192.5L522.2 192.5L525.6 202L524.4 202L523.4 199.4L519.5 199.4L518.6 202ZM519.9 198.3L523.0 198.3L522.4 196.4Q522.2 195.9 521.9 195.1L521.9 195.1Q521.7 194.4 521.5 193.5L521.5 193.5Q521.2 194.5 521.0 195.1L521.0 195.1Q520.7 195.9 520.6 196.4L520.6 196.4L519.9 198.3ZM528.1 202L527.0 202L527.0 194.9L528.1 194.9L528.1 196.0L528.2 196.0Q528.3 195.5 528.9 195.1Q529.4 194.8 530.0 194.8L530.0 194.8Q530.1 194.8 530.3 194.8Q530.5 194.8 530.6 194.8L530.6 194.8L530.6 196.0Q530.5 196.0 530.3 195.9Q530.1 195.9 529.9 195.9L529.9 195.9Q529.4 195.9 529.0 196.1Q528.6 196.3 528.3 196.7Q528.1 197.1 528.1 197.6L528.1 197.6L528.1 202ZM534.8 202.2L534.8 202.2Q533.8 202.2 533.1 201.7Q532.3 201.2 531.9 200.4Q531.5 199.6 531.5 198.5L531.5 198.5Q531.5 197.4 531.9 196.6Q532.3 195.7 533.1 195.3Q533.8 194.8 534.8 194.8L534.8 194.8Q535.3 194.8 535.7 194.9Q536.2 195.1 536.6 195.3Q536.9 195.6 537.2 195.9Q537.5 196.3 537.6 196.8L537.6 196.8L536.5 197.1Q536.5 196.8 536.3 196.6Q536.1 196.4 535.9 196.2Q535.7 196.0 535.4 195.9Q535.1 195.8 534.8 195.8L534.8 195.8Q534.0 195.8 533.6 196.2Q533.1 196.6 532.9 197.2Q532.7 197.8 532.7 198.5L532.7 198.5Q532.7 199.2 532.9 199.8Q533.1 200.4 533.6 200.8Q534.0 201.1 534.8 201.1L534.8 201.1Q535.1 201.1 535.4 201.0Q535.7 200.9 535.9 200.8Q536.2 200.6 536.3 200.3Q536.5 200.1 536.6 199.8L536.6 199.8L537.7 200.1Q537.5 200.6 537.2 201.0Q537.0 201.4 536.6 201.6Q536.2 201.9 535.7 202.0Q535.3 202.2 534.8 202.2ZM540.4 197.7L540.4 197.7L540.4 202L539.3 202L539.3 192.5L540.4 192.5L540.4 196.1Q540.7 195.5 541.2 195.2L541.2 195.2Q541.8 194.8 542.6 194.8L542.6 194.8Q543.3 194.8 543.8 195.1Q544.4 195.4 544.7 196.0Q545.0 196.6 545.0 197.5L545.0 197.5L545.0 202L543.8 202L543.8 197.6Q543.8 196.8 543.4 196.3Q543.0 195.8 542.2 195.8L542.2 195.8Q541.7 195.8 541.3 196.1Q540.9 196.3 540.7 196.7Q540.4 197.1 540.4 197.7ZM548.1 202L547.0 202L547.0 194.9L548.1 194.9L548.1 202ZM547.6 193.7L547.6 193.7Q547.2 193.7 547.0 193.5Q546.8 193.3 546.8 193.0L546.8 193.0Q546.8 192.7 547.0 192.4Q547.2 192.2 547.6 192.2L547.6 192.2Q547.9 192.2 548.1 192.4Q548.4 192.7 548.4 193.0L548.4 193.0Q548.4 193.3 548.1 193.5Q547.9 193.7 547.6 193.7ZM551.5 194.9L552.9 194.9L552.9 195.9L551.5 195.9L551.5 200.2Q551.5 200.6 551.7 200.9Q551.8 201.1 552.3 201.1L552.3 201.1Q552.4 201.1 552.6 201.0Q552.7 201.0 552.9 201.0L552.9 201.0L553.1 202.0Q552.9 202.0 552.7 202.1Q552.5 202.1 552.3 202.1L552.3 202.1Q551.3 202.1 550.8 201.6Q550.3 201.1 550.3 200.2L550.3 200.2L550.3 195.9L549.3 195.9L549.3 194.9L550.3 194.9L550.3 193.2L551.5 193.2L551.5 194.9ZM557.4 202.2L557.4 202.2Q556.3 202.2 555.6 201.7Q554.8 201.2 554.4 200.4Q554.0 199.6 554.0 198.5Q554.0 197.4 554.4 196.6Q554.8 195.8 555.5 195.3Q556.3 194.8 557.2 194.8L557.2 194.8Q557.8 194.8 558.3 195.0Q558.9 195.2 559.3 195.6Q559.8 196.0 560.1 196.7Q560.3 197.4 560.3 198.4L560.3 198.4L560.3 198.8L555.2 198.8Q555.2 199.5 555.5 200.0L555.5 200.0Q555.7 200.6 556.2 200.9Q556.7 201.1 557.4 201.1L557.4 201.1Q557.8 201.1 558.1 201.0Q558.5 200.9 558.7 200.7Q559.0 200.4 559.1 200.0L559.1 200.0L560.2 200.3Q560.0 200.9 559.6 201.3Q559.3 201.7 558.7 201.9Q558.1 202.2 557.4 202.2ZM555.2 197.9L555.2 197.9L559.2 197.9Q559.1 197.4 559.0 197.0L559.0 197.0Q558.7 196.4 558.3 196.1Q557.9 195.8 557.2 195.8Q556.6 195.8 556.1 196.1Q555.7 196.5 555.4 197.0L555.4 197.0Q555.2 197.4 555.2 197.9ZM564.8 202.2L564.8 202.2Q563.9 202.2 563.2 201.7Q562.4 201.2 562.0 200.4Q561.6 199.6 561.6 198.5L561.6 198.5Q561.6 197.4 562.0 196.6Q562.4 195.7 563.2 195.3Q563.9 194.8 564.8 194.8L564.8 194.8Q565.4 194.8 565.8 194.9Q566.3 195.1 566.7 195.3Q567.0 195.6 567.3 195.9Q567.6 196.3 567.7 196.8L567.7 196.8L566.6 197.1Q566.5 196.8 566.4 196.6Q566.2 196.4 566.0 196.2Q565.8 196.0 565.5 195.9Q565.2 195.8 564.8 195.8L564.8 195.8Q564.1 195.8 563.7 196.2Q563.2 196.6 563.0 197.2Q562.8 197.8 562.8 198.5L562.8 198.5Q562.8 199.2 563.0 199.8Q563.2 200.4 563.7 200.8Q564.1 201.1 564.8 201.1L564.8 201.1Q565.2 201.1 565.5 201.0Q565.8 200.9 566.0 200.8Q566.3 200.6 566.4 200.3Q566.6 200.1 566.7 199.8L566.7 199.8L567.7 200.1Q567.6 200.6 567.3 201.0Q567.1 201.4 566.7 201.6Q566.3 201.9 565.8 202.0Q565.4 202.2 564.8 202.2ZM570.7 194.9L572.2 194.9L572.2 195.9L570.7 195.9L570.7 200.2Q570.7 200.6 570.9 200.9Q571.1 201.1 571.6 201.1L571.6 201.1Q571.7 201.1 571.8 201.0Q572.0 201.0 572.1 201.0L572.1 201.0L572.4 202.0Q572.2 202.0 572.0 202.1Q571.7 202.1 571.5 202.1L571.5 202.1Q570.6 202.1 570.1 201.6Q569.6 201.1 569.6 200.2L569.6 200.2L569.6 195.9L568.5 195.9L568.5 194.9L569.6 194.9L569.6 193.2L570.7 193.2L570.7 194.9ZM576.0 202.1L576.0 202.1Q575.3 202.1 574.8 201.8Q574.2 201.5 573.9 200.9Q573.6 200.3 573.6 199.4L573.6 199.4L573.6 194.9L574.8 194.9L574.8 199.3Q574.8 200.1 575.2 200.6Q575.6 201.1 576.4 201.1L576.4 201.1Q576.9 201.1 577.3 200.8Q577.7 200.6 577.9 200.2Q578.2 199.8 578.2 199.2L578.2 199.2L578.2 194.9L579.3 194.9L579.3 202L578.2 202L578.2 200.7Q577.9 201.4 577.4 201.7L577.4 201.7Q576.8 202.1 576.0 202.1ZM582.5 202L581.3 202L581.3 194.9L582.4 194.9L582.4 196.0L582.5 196.0Q582.7 195.5 583.2 195.1Q583.7 194.8 584.3 194.8L584.3 194.8Q584.5 194.8 584.7 194.8Q584.8 194.8 584.9 194.8L584.9 194.8L584.9 196.0Q584.9 196.0 584.7 195.9Q584.5 195.9 584.2 195.9L584.2 195.9Q583.7 195.9 583.3 196.1Q582.9 196.3 582.7 196.7Q582.5 197.1 582.5 197.6L582.5 197.6L582.5 202ZM589.2 202.2L589.2 202.2Q588.2 202.2 587.4 201.7Q586.7 201.2 586.3 200.4Q585.9 199.6 585.9 198.5Q585.9 197.4 586.3 196.6Q586.7 195.8 587.4 195.3Q588.1 194.8 589.1 194.8L589.1 194.8Q589.6 194.8 590.2 195.0Q590.7 195.2 591.2 195.6Q591.6 196.0 591.9 196.7Q592.2 197.4 592.2 198.4L592.2 198.4L592.2 198.8L587.0 198.8Q587.1 199.5 587.3 200.0L587.3 200.0Q587.6 200.6 588.1 200.9Q588.6 201.1 589.2 201.1L589.2 201.1Q589.6 201.1 590.0 201.0Q590.3 200.9 590.6 200.7Q590.8 200.4 590.9 200.0L590.9 200.0L592.0 200.3Q591.9 200.9 591.5 201.3Q591.1 201.7 590.5 201.9Q589.9 202.2 589.2 202.2ZM587.0 197.9L587.0 197.9L591.0 197.9Q591.0 197.4 590.8 197.0L590.8 197.0Q590.6 196.4 590.1 196.1Q589.7 195.8 589.1 195.8Q588.4 195.8 588.0 196.1Q587.5 196.5 587.3 197.0L587.3 197.0Q587.1 197.4 587.0 197.9Z "/></g></svg>